<?xml version="1.0" standalone="no"?>
<!DOCTYPE svg PUBLIC "-//W3C//DTD SVG 20010904//EN"
 "http://www.w3.org/TR/2001/REC-SVG-20010904/DTD/svg10.dtd">
<svg version="1.0" xmlns="http://www.w3.org/2000/svg"
 width="420.000000pt" height="594.000000pt" viewBox="0 0 420.000000 594.000000"
 preserveAspectRatio="xMidYMid meet">

<g transform="translate(0.000000,594.000000) scale(0.100000,-0.100000)"
fill="#000000" stroke="none">
<path d="M1705 4751 l-50 -6 79 -8 c122 -11 188 -9 184 6 -5 14 -129 18 -213
8z m178 -8 c-18 -2 -48 -2 -65 0 -18 2 -4 4 32 4 36 0 50 -2 33 -4z"/>
<path d="M2002 4714 c-53 -51 -205 -56 -437 -14 -137 24 -235 26 -278 4 -49
-25 -77 -55 -77 -83 0 -25 1 -25 17 7 25 51 76 72 176 72 46 0 108 -5 138 -10
149 -28 300 -41 362 -30 71 13 112 32 121 56 9 24 4 23 -22 -2z"/>
<path d="M1355 4639 c-10 -16 4 -24 17 -11 17 17 74 15 154 -8 48 -13 80 -17
100 -11 l29 8 -36 7 c-20 3 -44 3 -54 0 -12 -5 -16 -4 -12 3 4 6 -8 13 -31 17
-60 10 -160 7 -167 -5z m252 -25 c-3 -3 -12 -4 -19 -1 -8 3 -5 6 6 6 11 1 17
-2 13 -5z"/>
<path d="M1300 4600 c24 -24 26 -79 5 -120 -9 -18 -11 -30 -5 -30 16 0 50 62
49 90 -1 23 -2 23 -9 -5 l-8 -30 -2 38 c-4 56 -4 57 -20 67 -26 16 -31 11 -10
-10z"/>
<path d="M1730 4614 c-8 -1 -37 -6 -65 -10 -39 -5 -46 -8 -30 -15 49 -19 125
-6 125 23 0 8 -3 8 -30 2z m-27 -21 c-7 -2 -21 -2 -30 0 -10 3 -4 5 12 5 17 0
24 -2 18 -5z"/>
<path d="M960 4583 c-47 -17 -87 -55 -269 -252 -148 -160 -235 -221 -318 -221
-28 0 -34 -3 -23 -10 25 -16 52 -11 120 20 56 27 91 57 255 224 117 119 206
202 232 215 51 25 125 28 147 5 9 -8 16 -11 16 -6 0 5 -8 16 -18 25 -23 21
-82 21 -142 0z"/>
<path d="M1174 4575 c-5 -11 -3 -20 4 -23 7 -2 12 -8 12 -14 0 -6 -9 -3 -20 7
-32 29 -24 -2 8 -35 l29 -28 -2 44 c-1 50 -20 79 -31 49z"/>
<path d="M1034 4515 c-3 -8 -4 -20 -2 -27 3 -7 7 -1 10 15 6 29 1 36 -8 12z"/>
<path d="M945 4488 c-50 -27 -251 -249 -237 -262 3 -4 0 -5 -8 -2 -17 6 -57
-20 -47 -30 10 -11 51 4 75 27 13 11 54 63 92 114 65 88 123 145 148 145 7 0
12 5 12 10 0 13 -10 12 -35 -2z m-170 -197 c-25 -34 -51 -61 -56 -61 -5 0 14
28 43 63 29 35 55 62 57 61 2 -2 -18 -30 -44 -63z"/>
<path d="M1040 4464 c0 -7 7 -17 15 -24 8 -7 12 -16 10 -21 -8 -11 28 -29 59
-29 36 0 33 17 -4 25 -17 4 -42 19 -55 33 -14 15 -25 22 -25 16z"/>
<path d="M2286 4365 c-33 -23 -39 -24 -52 -10 -19 19 -35 19 -58 2 -18 -13
-18 -15 0 -42 17 -26 19 -46 16 -184 -2 -86 -6 -159 -9 -164 -7 -11 -117 169
-160 260 -18 39 -33 85 -33 102 0 38 -21 41 -48 7 -13 -17 -23 -22 -33 -15
-23 15 -43 10 -72 -17 -32 -29 -31 -48 2 -50 13 -1 26 -5 30 -10 3 -5 46 -70
95 -144 49 -74 108 -165 133 -201 34 -52 45 -79 50 -121 4 -42 2 -57 -11 -67
-23 -19 -20 -31 9 -31 15 0 30 -9 39 -22 23 -38 49 -154 43 -193 -3 -19 -3
-35 -1 -35 17 0 43 23 53 48 12 28 15 29 41 19 20 -7 38 -8 56 -2 33 12 41 31
16 37 -29 8 -75 132 -68 184 4 35 2 43 -13 47 -27 7 -45 84 -37 164 3 38 11
137 16 220 9 140 15 172 48 236 7 14 -16 6 -52 -18z"/>
<path d="M531 4289 c-56 -44 -99 -84 -96 -89 3 -4 -1 -11 -7 -13 -8 -3 -6 -6
4 -6 10 -1 62 40 115 91 54 50 100 93 102 95 2 2 0 3 -6 3 -5 0 -56 -36 -112
-81z m-31 -49 c-25 -22 -49 -40 -54 -40 -11 0 -11 0 44 44 60 48 66 45 10 -4z"/>
<path d="M2123 4344 c-3 -9 -1 -25 5 -35 8 -12 12 -65 12 -138 0 -93 3 -121
15 -131 13 -11 15 4 15 123 0 110 -3 137 -16 148 -8 7 -13 21 -11 31 6 22 -11
24 -20 2z"/>
<path d="M1694 4256 c-31 -27 -42 -31 -56 -23 -13 9 -26 7 -54 -6 l-36 -18 25
-23 c33 -31 40 -103 32 -363 -6 -220 -16 -275 -49 -299 l-21 -15 25 -19 c24
-18 25 -24 28 -138 3 -92 0 -127 -12 -157 -9 -21 -14 -40 -12 -43 8 -7 70 35
84 57 8 14 23 21 43 21 36 0 89 34 89 58 0 12 -3 13 -12 4 -22 -22 -46 -14
-53 19 -9 39 1 49 85 84 36 14 70 29 77 31 15 7 36 -69 31 -108 -3 -18 0 -28
8 -28 17 0 54 48 54 71 0 13 7 17 30 17 19 -1 40 8 55 22 30 28 32 40 6 40
-26 0 -35 13 -71 104 -30 76 -31 89 -15 129 6 13 0 20 -23 28 -17 6 -33 18
-37 27 -62 154 -176 472 -178 491 0 14 2 36 7 49 10 31 -4 28 -50 -12z m84
-529 c57 -161 57 -156 -6 -177 -29 -10 -54 -15 -55 -11 -7 13 6 301 13 301 4
0 26 -51 48 -113z"/>
<path d="M1748 3698 c9 -70 35 -138 50 -130 9 7 6 27 -14 90 -29 89 -45 107
-36 40z"/>
<path d="M3179 4273 c-13 -16 -12 -17 4 -4 16 13 21 21 13 21 -2 0 -10 -8 -17
-17z"/>
<path d="M3235 4272 c-16 -11 -36 -26 -44 -35 -14 -18 -36 -24 -26 -7 16 25
-35 6 -65 -25 -18 -19 -37 -32 -42 -29 -12 8 -58 -35 -69 -63 -5 -13 -15 -23
-23 -23 -23 0 -63 -79 -69 -136 -3 -29 -16 -74 -29 -100 -24 -53 -149 -184
-175 -184 -14 0 -14 2 1 23 33 46 86 182 74 192 -2 1 -25 -6 -53 -16 -47 -17
-47 -18 -12 -12 l38 5 -7 -38 c-14 -81 -42 -123 -114 -172 -25 -16 -65 -51
-90 -77 l-45 -47 55 41 c30 22 71 46 90 52 19 6 76 29 127 50 51 22 97 39 102
39 27 0 5 -21 -70 -65 -44 -26 -78 -49 -76 -52 5 -5 154 81 180 104 40 37 13
42 -68 14 -30 -11 -55 -16 -55 -12 0 5 24 33 53 62 63 65 151 119 206 126 43
6 48 12 30 30 -8 8 0 13 30 18 42 7 57 25 20 25 -11 0 -17 5 -14 10 3 6 24 10
47 10 35 0 40 2 35 20 -4 17 0 20 30 20 20 0 32 4 28 10 -3 6 0 11 7 11 7 1
18 2 23 4 6 1 16 3 24 3 8 1 11 5 7 9 -3 4 8 12 26 18 23 7 32 16 30 28 -2 13
4 17 28 17 20 0 30 5 30 15 0 9 9 15 24 15 28 0 42 15 25 26 -15 9 9 24 41 24
l25 1 -25 14 c-14 8 -33 14 -43 15 -10 0 -16 4 -12 9 6 11 -29 33 -38 24 -4
-3 -13 0 -22 7 -9 8 -30 11 -55 7 -22 -3 -43 -1 -46 4 -8 13 -15 11 -49 -9z"/>
<path d="M1790 4240 c0 -10 13 -27 29 -36 17 -10 42 -40 57 -68 15 -28 68
-118 118 -201 71 -118 92 -161 96 -200 l6 -50 18 38 c9 21 14 47 11 57 -7 21
-173 299 -228 379 -18 28 -50 62 -70 75 -34 24 -37 24 -37 6z"/>
<path d="M3065 4210 c-3 -5 -1 -10 4 -10 6 0 11 5 11 10 0 6 -2 10 -4 10 -3 0
-8 -4 -11 -10z"/>
<path d="M1528 4204 c-13 -12 -9 -43 8 -69 13 -21 15 -43 10 -137 -18 -318
-28 -434 -42 -467 l-15 -36 30 29 c17 16 35 43 40 60 5 17 12 151 16 298 6
260 6 267 -14 277 -11 6 -21 20 -23 32 -2 11 -6 17 -10 13z"/>
<path d="M2821 4089 c-6 -18 -10 -68 -9 -113 l1 -81 7 90 c4 50 10 100 14 113
11 34 -1 26 -13 -9z"/>
<path d="M3450 4110 c20 -13 33 -13 25 0 -3 6 -14 10 -23 10 -15 0 -15 -2 -2
-10z"/>
<path d="M1206 4062 c-12 -23 -21 -28 -38 -25 -14 3 -34 -4 -51 -17 -32 -25
-34 -36 -8 -43 21 -5 37 -61 76 -266 l26 -134 -22 -23 c-12 -13 -39 -25 -63
-29 -76 -12 -135 -36 -160 -66 -14 -16 -27 -29 -29 -29 -3 0 -10 33 -17 73 -6
39 -21 121 -32 182 -13 72 -19 133 -16 177 3 38 4 68 2 68 -2 0 -23 -17 -46
-37 -26 -24 -43 -33 -45 -25 -6 17 -40 15 -74 -5 -35 -21 -36 -29 -5 -58 15
-14 26 -39 31 -70 4 -27 20 -107 37 -179 28 -124 29 -131 14 -177 -19 -56 -19
-62 -6 -54 15 9 50 -32 50 -59 0 -13 12 -79 26 -147 22 -101 25 -128 15 -154
-23 -66 -10 -71 46 -19 31 29 41 34 55 25 27 -17 57 -13 94 10 41 25 43 39 6
39 -36 0 -50 28 -82 163 -18 72 -21 103 -14 115 14 22 67 47 129 62 28 6 67
22 89 36 21 14 41 22 45 17 18 -20 66 -252 65 -310 -1 -67 7 -72 50 -24 13 14
26 19 46 15 21 -5 33 0 54 22 32 36 33 44 1 44 -28 0 -29 3 -70 190 -29 132
-31 181 -9 215 15 23 15 25 0 25 -8 0 -22 10 -30 23 -17 27 -74 316 -80 407
-4 56 -7 65 -25 68 -14 2 -24 -6 -35 -26z"/>
<path d="M3388 4073 c6 -2 18 -2 25 0 6 3 1 5 -13 5 -14 0 -19 -2 -12 -5z"/>
<path d="M3330 4030 c8 -5 24 -9 35 -9 l20 0 -20 9 c-11 5 -27 9 -35 9 -13 1
-13 0 0 -9z"/>
<path d="M3270 4014 c0 -7 52 -25 57 -20 2 2 -10 8 -26 14 -17 6 -31 9 -31 6z"/>
<path d="M1058 3994 c-14 -13 -9 -40 12 -64 11 -13 20 -27 20 -33 0 -5 7 -57
16 -116 9 -58 16 -136 17 -173 1 -37 3 -68 5 -68 2 0 12 5 23 10 24 13 24 30
-1 188 -28 177 -29 180 -55 205 -13 12 -25 30 -27 40 -1 11 -6 15 -10 11z"/>
<path d="M3220 3979 c0 -5 9 -9 20 -9 11 0 20 2 20 4 0 2 -9 6 -20 9 -11 3
-20 1 -20 -4z"/>
<path d="M3160 3947 c3 -3 23 -10 44 -16 22 -5 35 -6 30 -2 -9 9 -83 27 -74
18z"/>
<path d="M3111 3886 c2 -2 24 -6 49 -9 30 -4 38 -3 25 3 -19 8 -83 14 -74 6z"/>
<path d="M2638 3843 c7 -3 16 -2 19 1 4 3 -2 6 -13 5 -11 0 -14 -3 -6 -6z"/>
<path d="M627 3824 c-13 -13 -7 -31 17 -57 17 -18 28 -50 40 -119 23 -130 34
-237 29 -286 -2 -23 -2 -42 1 -42 3 0 15 19 27 42 22 42 22 43 5 153 -29 190
-48 258 -76 272 -13 7 -27 19 -30 28 -3 9 -9 13 -13 9z"/>
<path d="M2913 3789 c-18 -5 -35 -14 -38 -19 -4 -6 6 -5 22 1 15 7 71 15 123
19 l95 7 -85 1 c-47 0 -99 -4 -117 -9z"/>
<path d="M2110 3652 c0 -5 9 -17 19 -26 26 -23 55 -136 48 -181 -4 -26 -2 -35
6 -32 7 2 13 30 15 71 4 82 -32 176 -67 176 -12 0 -21 -4 -21 -8z"/>
<path d="M3171 3599 c-13 -5 -36 -19 -52 -30 -23 -16 -33 -18 -44 -9 -17 14
-44 7 -79 -21 -32 -25 -33 -41 -4 -54 14 -6 27 -26 36 -55 18 -61 113 -542
109 -553 -3 -10 -239 227 -316 318 -61 72 -111 162 -111 201 0 48 -12 58 -46
41 -16 -9 -40 -26 -54 -38 -14 -14 -34 -22 -46 -21 -25 4 -74 -18 -92 -41 -10
-11 -9 -17 2 -27 9 -6 19 -9 24 -6 18 11 33 -22 56 -125 13 -57 36 -157 51
-223 23 -98 26 -124 17 -153 -9 -31 -8 -38 8 -52 25 -21 85 -279 75 -327 -8
-43 4 -43 50 -3 27 24 39 29 48 20 31 -31 108 -1 125 49 11 31 7 40 -18 40
-25 0 -37 31 -75 205 -19 88 -39 178 -44 200 -5 22 -8 42 -6 44 6 5 344 -330
357 -354 7 -11 15 -38 18 -60 l6 -40 35 37 c26 28 42 37 65 36 32 -1 79 26 89
52 3 8 -3 21 -14 30 -16 12 -26 46 -46 158 -25 142 -25 181 1 203 18 15 18 29
-1 29 -24 0 -45 43 -59 126 -47 272 -53 347 -31 397 8 19 1 20 -34 6z"/>
<path d="M483 3593 c-14 -5 -18 -71 -5 -89 13 -19 56 -44 76 -44 17 0 15 5
-13 28 -25 21 -36 39 -40 69 -4 26 -10 38 -18 36z"/>
<path d="M527 3594 c-13 -13 -7 -72 9 -88 41 -41 83 9 53 63 -14 25 -48 39
-62 25z"/>
<path d="M3434 3576 l-28 -23 26 -24 c30 -28 46 -87 78 -288 29 -178 30 -181
78 -181 28 0 45 7 62 25 22 23 22 26 7 38 -11 8 -22 44 -32 107 -35 216 -67
348 -89 362 -23 16 -75 8 -102 -16z"/>
<path d="M2928 3514 c-15 -14 -8 -51 13 -70 28 -25 36 -48 60 -173 43 -222 86
-367 105 -348 3 3 -2 31 -10 63 -8 33 -31 142 -51 244 -19 102 -41 195 -47
207 -6 12 -21 24 -34 27 -15 4 -24 15 -26 32 -2 14 -6 22 -10 18z"/>
<path d="M3375 3499 c-4 -5 1 -19 10 -29 12 -13 20 -48 26 -107 29 -292 83
-393 179 -338 l25 14 -32 1 c-48 0 -75 33 -87 105 -6 37 -52 291 -62 343 -3
15 -11 22 -29 22 -13 0 -27 -5 -30 -11z"/>
<path d="M1515 3460 c-3 -5 -1 -19 6 -32 12 -23 7 -230 -7 -278 -7 -22 -6 -24
9 -12 29 24 42 83 40 188 -1 95 -12 144 -33 144 -5 0 -12 -4 -15 -10z"/>
<path d="M520 3422 c-22 -18 -22 -19 -5 -67 10 -31 21 -119 29 -231 9 -139 16
-188 29 -208 25 -38 68 -35 114 7 34 32 35 34 13 33 -21 -1 -26 6 -37 54 -7
30 -18 132 -24 225 -13 184 -20 205 -69 205 -15 0 -38 -8 -50 -18z"/>
<path d="M1852 3329 c2 -79 10 -93 28 -49 15 37 5 120 -15 120 -11 0 -14 -16
-13 -71z"/>
<path d="M444 3374 c-9 -4 -8 -12 2 -32 15 -30 34 -208 34 -315 0 -112 37
-168 110 -166 35 1 35 1 9 12 -38 17 -60 38 -71 67 -5 14 -13 108 -17 210 -9
213 -18 244 -67 224z"/>
<path d="M1193 3373 c-10 -3 -9 -11 2 -33 23 -44 58 -229 52 -275 l-6 -40 21
25 c25 31 22 91 -13 235 -22 91 -28 100 -56 88z"/>
<path d="M2440 3305 c0 -9 11 -26 25 -39 28 -26 50 -103 85 -301 21 -115 22
-148 5 -190 -7 -18 -5 -17 18 4 34 31 34 50 -3 231 -41 203 -56 253 -76 265
-9 5 -26 18 -36 28 -15 14 -18 15 -18 2z"/>
<path d="M742 3278 c-16 -16 -15 -29 2 -22 26 10 72 -211 63 -307 -6 -70 5
-69 28 2 15 44 16 60 5 113 -6 33 -16 82 -21 109 -19 98 -46 136 -77 105z"/>
<path d="M2117 3184 c-26 -20 -47 -40 -47 -44 0 -4 -20 -10 -45 -12 -25 -3
-57 -14 -72 -23 l-27 -18 32 -16 c18 -8 35 -25 38 -37 7 -27 -13 -428 -25
-503 -5 -35 -17 -61 -35 -80 -30 -31 -32 -41 -11 -41 34 0 37 -36 20 -213 -13
-127 -22 -181 -36 -205 -10 -18 -19 -35 -19 -38 0 -9 78 35 110 63 25 20 42
26 69 24 25 -1 45 4 64 19 35 28 34 41 -3 34 -30 -6 -30 -6 -30 39 0 39 5 49
38 79 20 18 53 39 72 47 60 22 120 55 142 79 12 12 25 22 29 22 12 0 39 -56
39 -80 0 -12 -7 -34 -15 -50 -12 -24 -13 -30 -2 -30 21 0 56 29 72 59 9 19 25
30 45 35 35 6 90 42 90 57 0 5 -8 9 -18 9 -11 0 -38 28 -69 73 -74 106 -86
134 -79 179 6 35 4 38 -17 38 -31 0 -45 17 -109 130 -118 211 -143 269 -143
340 0 36 4 73 9 83 14 29 -16 20 -67 -19z m124 -582 c27 -46 49 -86 49 -88 0
-24 -121 -94 -163 -94 -9 0 -8 319 1 354 3 14 11 6 34 -35 17 -30 52 -91 79
-137z"/>
<path d="M2150 2713 c0 -24 66 -213 79 -226 4 -4 13 -1 20 7 10 12 2 36 -43
127 -31 63 -56 104 -56 92z"/>
<path d="M1890 3071 c0 -19 8 -35 22 -45 21 -15 21 -18 15 -218 -6 -212 -19
-290 -55 -352 -26 -44 -8 -49 31 -8 49 51 57 97 64 348 l6 232 -31 16 c-20 10
-32 24 -32 36 0 11 -4 20 -10 20 -5 0 -10 -13 -10 -29z"/>
<path d="M3597 3003 c-13 -12 -7 -62 9 -77 8 -9 26 -16 40 -16 20 0 24 5 24
31 0 43 -17 69 -44 69 -12 0 -26 -3 -29 -7z"/>
<path d="M3546 2964 c-13 -43 22 -94 66 -94 15 0 28 5 28 10 0 6 -6 10 -13 10
-18 0 -53 39 -65 70 -9 24 -9 24 -16 4z"/>
<path d="M2830 2880 c19 -37 74 -103 169 -203 81 -86 83 -90 78 -128 -6 -46
13 -54 38 -15 23 35 3 76 -81 165 -96 101 -220 212 -204 181z"/>
<path d="M1400 2871 c-79 -19 -145 -54 -160 -82 -11 -19 -13 -20 -30 -4 -25
23 -80 23 -96 0 -19 -26 -18 -32 10 -39 32 -8 48 -57 82 -253 27 -156 27 -210
-1 -233 -21 -17 -19 -37 4 -43 10 -2 26 -16 35 -30 19 -28 51 -231 51 -324 0
-69 7 -75 49 -42 22 18 30 19 58 9 27 -9 43 -8 87 8 30 10 57 25 59 32 3 9 -1
11 -11 7 -26 -10 -45 24 -67 116 -11 48 -20 93 -20 99 0 7 53 64 118 127 131
129 161 176 192 298 16 60 19 94 14 149 -4 48 -3 73 5 78 19 12 12 26 -14 26
-17 0 -43 16 -74 45 -26 24 -64 51 -84 60 -46 19 -123 18 -207 -4z m112 -92
c38 -17 71 -73 66 -111 -3 -18 -8 -41 -13 -50 -5 -14 -2 -18 13 -18 12 0 24
-6 28 -12 15 -23 6 -115 -14 -154 -19 -37 -161 -209 -167 -202 -5 5 -53 267
-65 352 -16 123 6 171 89 196 36 11 37 11 63 -1z"/>
<path d="M1435 2753 c-34 -19 -64 -52 -65 -72 0 -9 12 -3 33 16 43 43 76 50
105 23 29 -27 28 -64 -3 -119 -32 -56 -32 -61 9 -61 64 0 54 -55 -26 -145 -36
-41 -57 -73 -54 -82 3 -8 6 -19 6 -24 0 -11 65 60 112 123 37 48 54 104 42
140 -5 17 -12 20 -44 15 l-38 -5 24 46 c30 56 30 94 2 126 -30 33 -66 40 -103
19z"/>
<path d="M1047 2773 c-15 -14 -6 -58 17 -82 18 -20 27 -48 39 -126 42 -263 42
-275 10 -338 -18 -36 -10 -46 18 -21 30 26 59 92 59 135 0 47 -37 295 -51 336
-6 19 -22 38 -37 45 -15 8 -28 23 -30 36 -3 22 -13 28 -25 15z"/>
<path d="M2584 2720 c45 -54 84 -306 56 -361 l-13 -24 27 24 c22 21 26 33 26
82 0 67 -24 199 -47 251 -10 25 -25 40 -45 47 l-29 10 25 -29z"/>
<path d="M1857 2394 c-3 -4 3 -14 13 -23 19 -15 19 -23 9 -176 -6 -88 -17
-174 -24 -192 -16 -38 -7 -42 22 -10 18 19 24 49 38 195 16 165 16 174 0 192
-18 20 -46 26 -58 14z"/>
<path d="M3562 2325 c0 -16 3 -39 8 -50 8 -18 9 -18 8 5 0 14 -4 36 -8 50 -8
24 -8 24 -8 -5z"/>
<path d="M2353 2318 c-19 -20 -20 -25 -6 -37 11 -10 14 -26 10 -58 -6 -54 14
-44 32 16 9 32 9 47 -1 71 l-13 32 -22 -24z"/>
<path d="M3611 2281 c-12 -16 -21 -35 -21 -43 1 -18 50 39 50 58 0 21 -6 18
-29 -15z"/>
<path d="M3499 2262 c13 -25 40 -46 48 -39 7 8 -14 35 -39 48 -17 9 -18 8 -9
-9z"/>
<path d="M2964 2256 c-7 -19 3 -36 23 -36 9 0 13 6 10 14 -4 10 0 12 14 9 11
-3 22 -9 25 -14 3 -5 -3 -6 -12 -2 -12 4 -15 3 -10 -5 8 -13 56 -12 56 1 0 5
10 6 23 2 20 -5 20 -5 4 5 -10 7 -21 9 -24 6 -3 -3 -17 1 -32 8 -49 25 -71 28
-77 12z"/>
<path d="M3124 2258 c-4 -6 -3 -8 4 -4 5 3 13 0 15 -6 3 -8 6 -6 6 5 1 19 -14
23 -25 5z"/>
<path d="M3743 2254 c-18 -8 -33 -16 -33 -18 0 -9 51 8 61 20 14 16 13 16 -28
-2z"/>
<path d="M3663 2229 c-25 -9 -30 -19 -10 -19 15 0 43 17 37 23 -3 3 -15 1 -27
-4z"/>
<path d="M3565 2210 c3 -5 8 -10 11 -10 2 0 4 5 4 10 0 6 -5 10 -11 10 -5 0
-7 -4 -4 -10z"/>
<path d="M1145 2180 c-14 -16 -15 -20 -4 -20 51 0 99 -262 66 -358 -14 -39
-14 -43 1 -40 9 2 27 21 39 43 25 44 25 77 -3 249 -23 137 -54 176 -99 126z"/>
<path d="M3092 2180 c0 -14 2 -19 5 -12 2 6 2 18 0 25 -3 6 -5 1 -5 -13z"/>
<path d="M3465 2184 c-40 -14 -40 -14 -5 -9 19 3 39 10 44 15 12 12 11 12 -39
-6z"/>
<path d="M3532 2160 c-12 -19 -19 -36 -16 -39 10 -10 46 37 42 55 -3 16 -8 13
-26 -16z"/>
<path d="M3599 2166 c8 -10 24 -22 35 -28 20 -11 20 -10 5 13 -9 13 -25 26
-35 28 -16 3 -17 1 -5 -13z"/>
<path d="M2936 2155 c-11 -8 -15 -15 -9 -15 6 0 16 7 23 15 16 19 11 19 -14 0z"/>
<path d="M2980 2166 c0 -2 9 -6 20 -9 11 -3 18 -1 14 4 -5 9 -34 13 -34 5z"/>
<path d="M3360 2160 c-9 -6 -10 -10 -3 -10 6 0 15 5 18 10 8 12 4 12 -15 0z"/>
<path d="M2685 2131 c-10 -17 4 -31 51 -51 30 -13 42 -24 38 -34 -4 -11 1 -14
20 -12 14 2 26 -1 26 -6 0 -6 -16 -8 -35 -6 -32 4 -36 2 -33 -16 3 -23 36 -24
51 -3 5 8 7 4 5 -8 -2 -12 -10 -19 -21 -17 -9 2 -17 -2 -17 -8 0 -7 12 -9 29
-7 24 4 30 1 33 -18 3 -13 -3 -49 -13 -80 -19 -62 -15 -65 12 -7 17 34 18 35
12 7 -23 -124 -176 -250 -316 -260 l-62 -5 50 15 c43 12 45 13 11 9 -27 -4
-43 -1 -56 11 -23 20 -38 2 -19 -23 12 -16 12 -16 -5 -1 -14 13 -16 21 -7 37
10 18 9 20 -10 17 -15 -3 -19 0 -15 11 4 10 2 13 -6 8 -8 -5 -9 -2 -5 10 4 9
3 15 -2 12 -13 -9 -21 19 -9 35 8 11 9 11 5 -2 -3 -9 1 -16 9 -16 10 0 3 20
-22 65 -35 64 -38 92 -10 92 8 0 27 5 42 10 24 10 26 13 13 25 -13 14 -132 36
-204 39 -27 1 -30 -2 -33 -31 -3 -28 2 -36 30 -53 18 -11 43 -20 56 -20 21 0
62 -49 62 -74 0 -5 -73 -7 -176 -3 l-176 6 -24 -25 c-15 -14 -37 -24 -53 -24
-15 0 -36 -6 -47 -14 -19 -14 -19 -15 3 -44 l22 -29 -39 -38 c-41 -41 -86
-135 -76 -160 3 -9 13 -15 23 -13 13 2 19 -7 25 -42 18 -103 80 -185 173 -229
l40 -19 -100 1 c-108 0 -158 -9 -134 -24 8 -5 77 -9 154 -9 121 1 150 4 213
25 40 13 88 33 107 45 49 30 111 104 130 155 14 36 22 44 48 48 18 2 36 2 41
-1 5 -3 24 -6 43 -8 19 -2 42 -5 51 -8 10 -3 26 1 36 9 16 12 17 17 6 30 -7 8
-15 13 -19 11 -3 -3 -6 14 -6 36 0 39 3 43 80 101 44 33 114 88 155 122 41 33
80 64 85 67 17 10 10 -50 -8 -70 -38 -42 -62 -151 -37 -167 6 -4 17 -21 25
-38 l14 -32 -6 33 c-3 17 -3 32 0 32 3 0 10 -15 15 -32 6 -18 13 -42 17 -53 7
-20 6 -20 -9 -1 -24 30 -19 8 9 -40 14 -23 46 -60 71 -82 l47 -40 -82 -7 c-44
-4 -81 -11 -81 -15 0 -4 -18 -10 -39 -14 -22 -3 -43 -11 -47 -18 -5 -8 13 -9
72 -4 43 4 156 10 249 15 189 8 206 14 247 80 19 29 23 50 23 111 -1 93 -34
168 -102 232 -25 24 -57 54 -71 67 -30 28 -71 41 -129 41 -23 0 -45 5 -48 10
-4 6 7 24 24 41 35 34 41 56 12 37 -11 -7 -18 -15 -15 -19 2 -5 -6 -13 -18
-19 -22 -11 -22 -10 -4 4 11 9 15 16 9 16 -13 0 -12 32 1 41 5 4 9 31 10 62 1
54 1 54 -23 46 -43 -17 -31 -4 25 25 30 16 52 31 50 34 -3 3 -11 0 -18 -5 -23
-17 -117 -16 -144 2 -19 12 -29 14 -39 5 -10 -8 -15 -8 -20 0 -4 6 -18 15 -32
21 -13 5 -21 14 -18 19 4 6 10 8 15 5 4 -3 10 2 14 10 3 10 -2 16 -17 19 -50
10 -143 33 -158 40 -10 4 -20 3 -24 -3z m65 -31 c18 -12 2 -12 -25 0 -13 6
-15 9 -5 9 8 0 22 -4 30 -9z m76 -15 c19 -14 19 -14 -3 -15 -28 0 -53 10 -53
21 0 14 34 11 56 -6z m7 -32 c-7 -2 -19 -2 -25 0 -7 3 -2 5 12 5 14 0 19 -2
13 -5z m66 -42 c6 -10 9 -20 8 -22 -1 -2 5 4 14 15 16 19 17 19 39 -2 l22 -20
-21 -12 c-12 -6 -26 -8 -32 -4 -6 4 -15 0 -20 -7 -5 -9 -9 -10 -9 -2 0 6 -8 9
-18 6 -10 -2 -29 4 -42 15 -21 17 -22 22 -11 36 18 22 58 20 70 -3z m119 -33
c-3 -7 -12 -14 -21 -16 -12 -2 -15 1 -11 12 7 19 38 22 32 4z m-757 -51 l24
-17 -25 3 c-29 3 -50 14 -50 27 0 12 24 6 51 -13z m692 6 c-15 -3 -20 -9 -16
-20 3 -8 0 -19 -8 -24 -11 -7 -11 -9 4 -9 9 0 17 -5 17 -11 0 -6 -7 -8 -16 -5
-9 3 -19 6 -24 6 -9 0 -20 51 -13 62 2 5 21 7 41 7 22 -1 28 -3 15 -6z m57 -3
c0 -5 -7 -10 -16 -10 -8 0 -12 5 -9 10 3 6 10 10 16 10 5 0 9 -4 9 -10z m-620
-10 c12 -8 12 -10 -5 -10 -11 0 -27 5 -35 10 -12 8 -12 10 5 10 11 0 27 -5 35
-10z m621 -32 c-4 -13 -6 -29 -4 -35 7 -18 -24 -16 -31 2 -3 8 -1 15 5 15 6 0
7 5 4 10 -3 6 0 10 7 10 9 0 9 3 -2 10 -12 8 -11 10 7 10 19 0 21 -3 14 -22z
m-646 -83 l26 -45 -24 -23 c-34 -32 -127 -143 -127 -152 0 -5 9 0 20 10 11 10
20 14 20 9 0 -14 -75 -86 -82 -79 -7 7 -58 -59 -58 -75 0 -8 17 -10 53 -6 66
7 242 14 202 9 -16 -3 -34 -11 -38 -19 -6 -11 -34 -14 -122 -14 -97 0 -115 2
-115 15 0 21 83 130 88 116 5 -14 32 5 32 21 0 6 -7 5 -15 -2 -23 -19 -18 1 7
27 12 13 19 25 16 28 -3 4 -27 -24 -54 -60 -26 -36 -53 -64 -59 -62 -14 5 -95
127 -95 143 0 16 -6 16 -35 4 -14 -6 -15 -9 -5 -10 26 -1 118 -146 103 -161
-4 -4 -39 23 -77 61 -63 62 -68 70 -55 86 13 16 12 16 -9 5 -13 -7 -26 -10
-29 -8 -10 10 73 45 132 56 55 10 124 6 135 -8 3 -4 17 -14 31 -23 l26 -17 53
65 c50 64 51 66 39 97 -8 18 -13 35 -11 40 1 4 -2 7 -8 7 -5 0 -10 5 -10 11 0
18 17 0 45 -46z m508 0 c5 -27 -17 -52 -111 -130 -18 -15 -30 -30 -28 -33 7
-7 -13 -32 -26 -32 -5 0 -6 6 -2 13 4 6 5 10 1 7 -3 -3 -6 -9 -7 -15 -2 -15
-21 -35 -32 -35 -5 0 -6 6 -2 13 8 12 -4 4 -59 -40 -35 -28 -57 -29 -64 -3 -3
11 -13 20 -22 21 -9 0 11 8 44 18 127 36 235 118 271 205 20 48 29 51 37 11z
m138 -10 c0 -5 -11 -11 -23 -12 -13 -1 -17 0 -10 3 6 3 9 10 6 16 -4 5 1 8 10
6 10 -1 17 -7 17 -13z m-43 -32 c-10 -2 -26 -2 -35 0 -10 3 -2 5 17 5 19 0 27
-2 18 -5z m-68 -8 c0 -8 -152 -117 -156 -112 -5 4 143 117 152 117 2 0 4 -2 4
-5z m116 -10 c-11 -8 -29 -15 -39 -15 -16 0 -18 -5 -14 -27 3 -16 15 -48 26
-73 13 -29 18 -35 15 -17 -11 49 -9 62 6 62 23 0 73 -156 60 -189 -7 -20 -6
-26 5 -26 7 0 17 -4 20 -10 3 -5 -1 -10 -10 -10 -24 0 -77 90 -70 120 3 16 2
20 -3 12 -6 -9 -17 7 -35 50 -39 93 -39 108 3 124 47 17 59 17 36 -1z m-1010
-10 c-11 -8 -25 -15 -30 -15 -6 0 -2 7 8 15 11 8 25 15 30 15 6 0 2 -7 -8 -15z
m314 -3 c0 -3 -9 -16 -21 -28 l-21 -22 -56 19 c-32 11 -88 23 -127 27 -58 7
-46 8 78 8 81 1 147 -2 147 -4z m-290 -22 c-20 -13 -43 -13 -35 0 3 6 16 10
28 10 18 0 19 -2 7 -10z m-60 -9 c0 -14 -41 -41 -62 -41 -18 0 -42 33 -31 44
10 10 93 7 93 -3z m452 -50 c8 11 8 10 4 -5 -4 -11 4 -36 19 -62 30 -51 31
-64 5 -64 -12 0 -26 12 -35 31 -9 16 -32 48 -52 70 l-36 40 24 25 23 25 19
-37 c15 -29 21 -34 29 -23z m724 51 c11 -4 33 -17 48 -29 l27 -22 -55 -82 -55
-83 -16 37 c-19 45 -44 164 -37 172 9 8 -15 6 -44 -5 -15 -6 -29 -8 -32 -5
-18 18 115 32 164 17z m111 -51 c18 -14 33 -30 33 -35 0 -5 -9 -1 -20 9 -11
10 -20 16 -20 13 0 -2 12 -15 27 -29 14 -13 22 -17 18 -9 -8 13 -7 13 8 1 19
-15 23 -36 5 -25 -7 4 -8 3 -4 -5 4 -6 11 -9 16 -6 17 11 62 -97 68 -161 10
-135 -72 -200 -221 -174 -62 11 -165 69 -175 99 -3 9 0 11 8 6 9 -5 11 -4 6 4
-4 6 -11 9 -15 6 -5 -2 -16 4 -26 15 -20 22 -7 28 14 8 7 -7 1 7 -12 32 -26
47 -42 100 -31 100 16 0 152 -84 148 -92 -3 -4 2 -5 11 -1 10 3 20 1 24 -6 4
-6 8 13 9 44 1 48 6 63 49 125 26 38 55 70 63 70 10 1 4 10 -15 26 -37 32 -13
20 32 -15z m-327 -46 c-6 -15 -13 -26 -16 -23 -2 3 0 18 6 33 6 15 13 26 16
23 2 -3 0 -18 -6 -33z m-600 -19 c33 -44 52 -76 43 -76 -4 0 -16 14 -25 30
l-17 31 -56 -37 c-30 -20 -55 -38 -55 -40 0 -2 25 8 57 22 44 20 58 22 64 12
5 -7 7 -17 6 -23 -4 -11 -109 -43 -146 -44 -24 -1 -24 -1 -5 15 10 8 12 12 4
8 -8 -4 9 18 39 49 42 43 58 54 68 45 19 -15 16 2 -4 25 -13 15 -14 18 -3 12
8 -5 22 -18 30 -29z m658 -18 c12 -28 21 -53 19 -54 -1 -1 -17 10 -36 25 -28
23 -33 32 -27 54 9 39 19 33 44 -25z m-1104 -5 c-33 -49 -37 -71 -32 -166 5
-86 -7 -75 -18 17 -7 61 6 115 38 155 33 42 42 38 12 -6z m121 -27 c49 -42 55
-52 50 -76 -5 -22 -2 -28 15 -33 12 -3 19 -10 16 -16 -4 -5 -1 -13 5 -16 7 -5
3 -15 -12 -31 -24 -26 -17 -34 8 -9 8 8 18 13 23 10 5 -3 12 4 15 16 4 12 12
18 21 15 7 -3 16 -1 19 4 4 6 49 10 101 10 71 0 94 -3 94 -13 0 -37 -35 -109
-70 -143 -21 -21 -36 -42 -33 -46 9 -16 -87 -49 -145 -50 -75 0 -195 53 -178
80 3 5 -2 16 -11 23 -33 28 -63 111 -63 175 0 33 3 63 6 67 3 3 24 -1 46 -9
23 -8 43 -12 45 -10 2 2 -13 9 -34 16 -54 18 -56 21 -27 63 29 43 28 43 109
-27z m620 9 c-22 -19 -44 -35 -48 -35 -5 0 10 16 33 35 23 19 45 35 48 35 4
-1 -11 -16 -33 -35z m305 6 c0 -6 -4 -13 -10 -16 -5 -3 -10 1 -10 9 0 9 5 16
10 16 6 0 10 -4 10 -9z m-407 -8 c-7 -2 -19 -2 -25 0 -7 3 -2 5 12 5 14 0 19
-2 13 -5z m512 -75 c6 -6 -12 3 -40 18 -53 28 -67 43 -58 56 4 7 45 -24 98
-74z m-456 9 c8 -10 7 -19 -5 -33 -14 -18 -15 -18 -8 5 4 15 1 27 -7 32 -8 5
-9 9 -3 9 6 0 17 -6 23 -13z m-192 -82 c-8 -57 -40 -120 -80 -156 -49 -45 -51
-34 -3 16 36 36 47 57 61 115 19 79 31 93 22 25z m69 28 c20 -26 17 -33 -12
-33 -20 0 -25 4 -20 16 3 9 6 20 6 25 0 14 12 11 26 -8z"/>
<path d="M2218 1433 c7 -3 16 -2 19 1 4 3 -2 6 -13 5 -11 0 -14 -3 -6 -6z"/>
<path d="M3113 1660 c0 -25 2 -35 4 -22 2 12 2 32 0 45 -2 12 -4 2 -4 -23z"/>
<path d="M3362 1450 c0 -14 2 -19 5 -12 2 6 2 18 0 25 -3 6 -5 1 -5 -13z"/>
<path d="M3361 1367 c-2 -31 -31 -78 -43 -71 -7 4 -8 3 -4 -4 10 -17 -33 -35
-104 -43 l-65 -7 77 1 c60 2 81 6 98 22 31 28 52 72 47 98 -3 16 -5 17 -6 4z"/>
<path d="M2003 1443 c9 -2 23 -2 30 0 6 3 -1 5 -18 5 -16 0 -22 -2 -12 -5z"/>
<path d="M2008 1423 c6 -2 18 -2 25 0 6 3 1 5 -13 5 -14 0 -19 -2 -12 -5z"/>
<path d="M1903 1413 c9 -2 23 -2 30 0 6 3 -1 5 -18 5 -16 0 -22 -2 -12 -5z"/>
<path d="M2015 1289 c-22 -23 -49 -44 -59 -48 -17 -7 -13 -12 29 -37 41 -23
63 -29 120 -30 l70 -2 -70 7 c-38 4 -79 12 -90 19 -53 30 -53 28 0 82 27 27
47 50 44 50 -3 0 -23 -18 -44 -41z"/>
<path d="M2205 1195 c-25 -12 -26 -14 -5 -9 14 4 29 10 35 15 12 12 5 11 -30
-6z"/>
<path d="M2890 2125 c0 -29 11 -41 42 -47 21 -4 29 -1 33 13 4 11 12 16 21 12
8 -3 14 1 14 10 0 16 -26 30 -40 22 -5 -3 -7 -15 -5 -26 6 -30 -36 -21 -52 11
-11 22 -13 22 -13 5z"/>
<path d="M3105 2123 c-5 -14 -4 -15 6 -6 9 9 18 9 33 2 20 -10 20 -10 2 5 -25
20 -32 20 -41 -1z"/>
<path d="M3013 2114 c0 -8 9 -14 19 -14 10 0 18 6 18 13 0 7 -8 13 -18 14 -10
1 -19 -5 -19 -13z"/>
<path d="M3582 2080 c0 -19 2 -27 5 -17 2 9 2 25 0 35 -3 9 -5 1 -5 -18z"/>
<path d="M3088 2093 c6 -2 18 -2 25 0 6 3 1 5 -13 5 -14 0 -19 -2 -12 -5z"/>
<path d="M3146 2046 c-5 -28 -4 -41 5 -47 10 -6 10 -13 1 -35 -7 -14 -11 -28
-9 -31 2 -2 10 10 17 26 9 22 10 44 3 78 l-9 48 -8 -39z"/>
<path d="M2950 2049 c0 -5 5 -7 10 -4 6 3 10 8 10 11 0 2 -4 4 -10 4 -5 0 -10
-5 -10 -11z"/>
<path d="M3082 2040 c0 -14 2 -19 5 -12 2 6 2 18 0 25 -3 6 -5 1 -5 -13z"/>
<path d="M3111 2044 c0 -11 3 -14 6 -6 3 7 2 16 -1 19 -3 4 -6 -2 -5 -13z"/>
<path d="M3590 1997 c0 -14 5 -29 10 -32 7 -4 8 3 4 22 -9 38 -14 42 -14 10z"/>
<path d="M3116 1875 c-9 -26 -7 -32 5 -12 6 10 9 21 6 23 -2 3 -7 -2 -11 -11z"/>
<path d="M2759 1753 c-13 -16 -12 -17 4 -4 16 13 21 21 13 21 -2 0 -10 -8 -17
-17z"/>
<path d="M2709 1707 c-14 -12 -35 -28 -45 -35 -10 -7 -5 -6 11 3 37 18 84 55
70 54 -5 0 -22 -10 -36 -22z"/>
<path d="M2615 1650 c-3 -6 1 -7 9 -4 18 7 21 14 7 14 -6 0 -13 -4 -16 -10z"/>
<path d="M2578 1633 c7 -3 16 -2 19 1 4 3 -2 6 -13 5 -11 0 -14 -3 -6 -6z"/>
<path d="M1425 1450 c3 -19 10 -39 16 -45 7 -7 8 -1 3 20 -11 46 -26 67 -19
25z"/>
<path d="M1480 1411 c-17 -54 -7 -75 14 -27 18 42 21 66 8 66 -5 0 -15 -17
-22 -39z"/>
<path d="M1625 1418 c-11 -6 -23 -15 -26 -20 -3 -5 -12 -10 -20 -11 -22 -4
-66 -37 -49 -37 15 0 120 66 120 75 0 7 -2 6 -25 -7z"/>
<path d="M1370 1382 c0 -12 34 -42 48 -42 22 0 12 19 -18 35 -16 9 -30 12 -30
7z"/>
<path d="M1450 1329 c0 -5 5 -7 10 -4 6 3 10 8 10 11 0 2 -4 4 -10 4 -5 0 -10
-5 -10 -11z"/>
<path d="M1490 1297 c0 -12 39 -37 57 -37 9 0 -19 30 -39 41 -13 7 -18 6 -18
-4z"/>
<path d="M1357 1281 c-20 -10 -34 -20 -31 -24 7 -7 60 18 69 33 8 12 9 12 -38
-9z"/>
<path d="M1432 1277 c-15 -35 -15 -57 -2 -57 12 0 23 42 17 67 -3 15 -6 13
-15 -10z"/>
<path d="M1491 1200 c0 -8 4 -24 9 -35 l9 -20 0 20 c0 11 -4 27 -9 35 -9 13
-10 13 -9 0z"/>
<path d="M1520 1101 c0 -10 7 -24 15 -31 13 -11 13 -8 4 19 -12 35 -19 40 -19
12z"/>
</g>
</svg>
